<?xml version="1.0" encoding="utf-8"?>
<!-- Generator: Adobe Illustrator 16.0.0, SVG Export Plug-In . SVG Version: 6.00 Build 0)  -->
<!DOCTYPE svg PUBLIC "-//W3C//DTD SVG 1.1//EN" "http://www.w3.org/Graphics/SVG/1.1/DTD/svg11.dtd">
<svg version="1.1" xmlns="http://www.w3.org/2000/svg" xmlns:xlink="http://www.w3.org/1999/xlink" x="0px" y="0px" width="100%"
	 height="100%" viewBox="0 0 80 106.5" enable-background="new 0 0 80 106.5" xml:space="preserve">
<g id="图层_1">
	<path opacity="0.7" fill="#46A6B5" d="M40.069,105.284c-1.246,0-1.934-0.15-2.372-0.662c-0.263-0.309-26.745-31.741-33.802-46.963
		C1.345,52.207,0,46.285,0,40.508C0,18.719,17.973,1,40.069,1c22.095,0,40.069,17.841,40.069,39.765
		c0,6.624-1.241,11.627-4.284,17.271c-8.413,15.594-33.13,46.218-33.376,46.522c-0.297,0.369-0.82,0.726-2.348,0.726H40.069
		L40.069,105.284z M40.035,3.225c-20.902,0-37.911,17.007-37.911,37.913c0,20.903,17.008,37.91,37.911,37.91
		c20.904,0,37.909-17.007,37.909-37.91C77.944,20.231,60.939,3.225,40.035,3.225z M40,5.058c-19.846,0-35.994,16.147-35.994,35.996
		C4.006,60.9,20.155,77.047,40,77.047c19.847,0,35.994-16.147,35.994-35.993C75.994,21.206,59.848,5.058,40,5.058z"/>
</g>
<g id="图层_2">
	<path opacity="0.5" fill="#00FF00" enable-background="new    " d="M52.296,61.688c0,3.014-1.403,5.457-3.134,5.457H32.713
		c-1.73,0-3.133-2.443-3.133-5.457V25.764c0-3.014,1.403-5.252,3.133-5.252h16.449c1.73,0,3.134,2.238,3.134,5.252V61.688z"/>
	<g>
		<path fill="none" stroke="#FFFFFF" stroke-width="2" stroke-miterlimit="10" d="M52.557,64.011c0,1.73-1.402,3.134-3.133,3.134
			H32.452c-1.73,0-3.133-1.403-3.133-3.134V19.1c0-1.729,1.403-3.133,3.133-3.133h16.972c1.73,0,3.133,1.403,3.133,3.133V64.011z"/>
		<path fill="#FFFFFF" stroke="#FFFFFF" stroke-width="2" stroke-miterlimit="10" d="M46.029,15.744
			c0,0.123-0.583,0.224-1.303,0.224h-7.056c-0.72,0-1.303-0.101-1.303-0.224v-3.208c0-0.124,0.583-0.224,1.303-0.224h7.056
			c0.72,0,1.303,0.1,1.303,0.224V15.744z"/>
		<line fill="none" stroke="#FFFFFF" stroke-width="2" stroke-miterlimit="10" x1="29.318" y1="28.761" x2="52.557" y2="28.761"/>
		<line fill="none" stroke="#FFFFFF" stroke-width="2" stroke-miterlimit="10" x1="29.318" y1="39.99" x2="52.557" y2="39.99"/>
		<line fill="none" stroke="#FFFFFF" stroke-width="2" stroke-miterlimit="10" x1="29.58" y1="52" x2="52.818" y2="52"/>
	</g>
</g>
</svg>
